<?xml version="1.0" encoding="utf-8"?>
<!-- Generator: Adobe Illustrator 25.3.1, SVG Export Plug-In . SVG Version: 6.00 Build 0)  -->
<svg version="1.1" id="Layer_1" xmlns="http://www.w3.org/2000/svg" xmlns:xlink="http://www.w3.org/1999/xlink" x="0px" y="0px"
	 viewBox="0 0 288 144" style="enable-background:new 0 0 288 144;" xml:space="preserve">
<style type="text/css">
	.st0{fill:#F3B22D;}
	.st1{fill:#FFFFFF;}
</style>
<rect x="41.39" y="52.85" class="st0" width="208.69" height="36.29"/>
<g>
	<path class="st1" d="M100.73,83.33V58.66h3.93v21.11h5.67v3.56H100.73z"/>
	<path class="st1" d="M112.1,83.33V58.66h9.85v3.48h-5.92v6.81h4.11v3.26h-4.11v7.52h5.92v3.59H112.1z"/>
	<path class="st1" d="M130.73,62.26v21.07h-3.93V62.26h-3.81v-3.59h11.48v3.59H130.73z"/>
	<path class="st1" d="M135.81,66.22v-0.96c0.96,0,1.63-0.7,1.63-2.22h-1.44v-4.37h3.11v3.93C139.1,64.66,137.96,66.22,135.81,66.22z
		"/>
	<path class="st1" d="M146.55,83.77c-3.55,0-5.78-2.19-5.78-5.67v-2.19h3.59v2.11c0,1.56,0.7,2.44,2.07,2.44
		c1.41,0,2.07-0.85,2.07-2.22c0-2.15-1.07-3.74-3.15-5.92c-2.04-2.04-4.41-4.93-4.41-8.07c0-3.33,1.93-6.04,5.74-6.04
		c3.3,0,5.44,2.3,5.44,5.67v2.22h-3.55v-2.22c0-1.37-0.63-2.3-1.89-2.3c-1.15,0-1.93,0.74-1.93,2c0,2.41,1.07,3.59,3.37,6.04
		c2.41,2.48,4.18,4.96,4.18,8.07C152.33,81.62,149.77,83.77,146.55,83.77z"/>
	<path class="st1" d="M168.77,83.33l-0.59-1.67c-0.67,1.41-2.11,2.11-3.78,2.11c-3.26,0-5.29-2.33-5.29-5.67V63.88
		c0-3.07,2.3-5.67,5.92-5.67c3.63,0,5.67,2.52,5.67,5.67v3.3h-3.7v-3.52c0-1.04-0.63-1.89-1.96-1.89c-1.3,0-1.96,0.89-1.96,1.93
		v14.66c0,1.07,0.7,1.96,2,1.96c1.33,0,2-0.89,2-1.96v-4.41h-1.93v-2.96h5.74v12.33H168.77z"/>
	<path class="st1" d="M178.92,83.77c-3.55,0-5.89-2.41-5.89-5.85V64.07c0-3.41,2.33-5.85,5.89-5.85c3.56,0,5.89,2.44,5.89,5.85
		v13.85C184.81,81.36,182.48,83.77,178.92,83.77z M180.85,63.77c0-1.19-0.7-2-1.93-2c-1.22,0-1.93,0.81-1.93,2v14.44
		c0,1.18,0.7,2,1.93,2c1.22,0,1.93-0.81,1.93-2V63.77z"/>
	<path class="st1" d="M189.55,76.81h-1.07l-1.19-7.44v-10.7h3.44v10.7L189.55,76.81z M187.52,83.33v-4.04h3v4.04H187.52z"/>
</g>
</svg>
