<?xml version="1.0" encoding="utf-8"?>
<!-- Generator: Adobe Illustrator 25.2.1, SVG Export Plug-In . SVG Version: 6.00 Build 0)  -->
<svg version="1.1" id="Layer_1" xmlns="http://www.w3.org/2000/svg" xmlns:xlink="http://www.w3.org/1999/xlink" x="0px" y="0px"
	 viewBox="0 0 810.57 95" style="enable-background:new 0 0 810.57 95;" xml:space="preserve">
<style type="text/css">
	.st0{enable-background:new    ;}
	.st1{fill:#FFFFFF;}
	.st2{fill:none;stroke:#F7BB16;stroke-width:2;stroke-linecap:round;stroke-miterlimit:10;}
</style>
<g id="Group_13" transform="translate(-135.399 -1093.666)">
	<g class="st0">
		<path class="st1" d="M488.38,1147.54h-5.15v-5.86h16.37v5.86h-5.15v34.48h-6.07V1147.54z"/>
		<path class="st1" d="M516.25,1182.02h-6.13v-40.34h6.13V1182.02z"/>
		<path class="st1" d="M541.46,1141.69v5.86h-7.81v10.57h6.13v6.13h-6.13v11.66h8.13v6.13h-14.26v-40.34h13.94V1141.69z"/>
		<path class="st1" d="M558.48,1182.02h-6.13v-40.34h9.92c4.07,0,6.13,1.74,6.13,6.24v7.16c0,3.36-1.57,4.66-2.66,5.15
			c1.36,0.6,2.66,1.68,2.66,4.39v14.15c0,1.63,0.33,2.39,0.6,2.98v0.27h-6.07c-0.27-0.43-0.6-1.14-0.6-3.31v-12.14
			c0-1.79-0.33-2.55-2.28-2.55h-1.57L558.48,1182.02L558.48,1182.02z M558.48,1158.28h1.63c1.68,0,2.22-1.08,2.22-2.87v-5.64
			c0-1.73-0.38-2.6-2.22-2.6h-1.63V1158.28z"/>
		<path class="st1" d="M593.24,1182.02v-3.04c0-5.26,0.81-7.86,4.72-14.69l3.52-6.23c1.68-2.98,1.74-4.23,1.74-6.18v-2.6
			c0-1.52-0.54-2.12-1.57-2.12c-1.14,0-1.52,0.6-1.52,2.12v6.88h-5.85v-7.37c0-3.85,1.57-7.48,6.67-7.48h1.25
			c4.55,0,7.48,2.06,7.48,7.48v2.01c0,4.72-0.22,6.61-3.58,11.66c-1.08,1.63-2.71,3.79-3.9,5.53c-3.63,5.21-3.85,6.67-3.85,8.29
			h5.42v-7.75h6.18v13.5h-16.71V1182.02z"/>
	</g>
	<line id="Line_3" class="st2" x1="669.94" y1="1157.52" x2="944.96" y2="1157.52"/>
	<line id="Line_4" class="st2" x1="136.4" y1="1157.52" x2="411.42" y2="1157.52"/>
</g>
<g>
	<path class="st1" d="M321.48,18.05v-2.63c1.92-0.11,2.52-0.66,2.83-2.35h2.6v21.29h-3.26V18.05H321.48z"/>
	<path class="st1" d="M333.07,24.83V13.07h7.95v3.2h-4.78v4.78c0.54-1.12,1.43-2.09,2.6-2.09h0.11c1.69,0,2.26,1.29,2.26,2.52v9.13
		c0,2-1.09,4.01-3.89,4.01h-0.6c-3.26,0-3.95-2.15-3.95-3.66v-4.38h3.32v3.75c0,0.72,0.17,1.23,0.86,1.23c0.6,0,0.8-0.54,0.8-1.23
		v-6.78c0-0.6,0-1.26-0.74-1.26c-0.71,0-0.77,0.66-0.77,1.26v1.29h-3.17L333.07,24.83L333.07,24.83z"/>
	<path class="st1" d="M346.63,34.35v-1.6c0-2.77,0.43-4.15,2.49-7.75l1.86-3.29c0.89-1.57,0.92-2.23,0.92-3.26v-1.37
		c0-0.8-0.29-1.12-0.83-1.12c-0.6,0-0.8,0.31-0.8,1.12v3.63h-3.09v-3.89c0-2.03,0.83-3.95,3.52-3.95h0.66c2.4,0,3.95,1.09,3.95,3.95
		v1.06c0,2.49-0.11,3.49-1.89,6.15c-0.57,0.86-1.43,2-2.06,2.92c-1.92,2.75-2.03,3.52-2.03,4.38h2.86v-4.09h3.26v7.12h-8.82
		L346.63,34.35L346.63,34.35z"/>
	<path class="st1" d="M372.7,24.43v2.8h-4.03v-2.8H372.7z"/>
	<path class="st1" d="M386.2,19.48v-2.69c0-1.69,0.71-3.92,3.35-3.92h0.8c2.66,0,3.8,1.63,3.8,3.98v2.43c0,2.23-0.57,2.95-1.34,3.35
		c0.97,0.37,1.54,1,1.54,2.55v5.24c0,2.58-1.49,4.21-3.75,4.21h-0.89c-2.78,0-3.75-1.63-3.75-3.66v-4.32h3.2v3.49
		c0,0.86,0.34,1.26,0.94,1.26s0.89-0.4,0.89-1.26v-4.43c0-0.74-0.11-1.09-0.86-1.09h-1.75V21.3h1.52c0.8,0,0.92-0.26,0.92-1.2v-2.98
		c0-0.89-0.23-1.17-0.83-1.17c-0.57,0-0.8,0.29-0.8,1.14v2.4h-2.99L386.2,19.48L386.2,19.48z"/>
	<path class="st1" d="M408.69,30.18c0,2.55-1.37,4.43-3.98,4.43H404c-2.52,0-3.86-1.52-3.86-4.43V17.76c0-3.09,1.09-4.89,4.03-4.89
		h0.6c3.03,0,3.92,1.97,3.92,4.83V30.18z M405.4,17.59c0-1.09-0.23-1.57-1-1.57s-0.97,0.51-0.97,1.57v12.36
		c0,0.77,0.11,1.43,0.94,1.43s1.03-0.6,1.03-1.43L405.4,17.59L405.4,17.59z"/>
	<path class="st1" d="M423.11,30.18c0,2.55-1.37,4.43-3.98,4.43h-0.71c-2.52,0-3.86-1.52-3.86-4.43V17.76
		c0-3.09,1.09-4.89,4.03-4.89h0.6c3.03,0,3.92,1.97,3.92,4.83V30.18z M419.82,17.59c0-1.09-0.23-1.57-1-1.57s-0.97,0.51-0.97,1.57
		v12.36c0,0.77,0.11,1.43,0.94,1.43s1.03-0.6,1.03-1.43L419.82,17.59L419.82,17.59z"/>
	<path class="st1" d="M439.7,18.96v1.66c0.37-0.6,1.2-1.75,2.49-1.75h0.03c1.54,0,2.26,1.26,2.26,2.89v9.67c0,2-1.09,3.03-2.35,3.03
		h-0.06c-1.12,0-1.86-0.83-2.38-1.46v6.72h-3.06V18.95h3.07L439.7,18.96L439.7,18.96z M441.36,30.75v-8.04
		c0-0.71-0.23-1.12-0.8-1.12c-0.54,0-0.86,0.43-0.86,1.12v7.98c0,0.8,0.4,1.17,0.86,1.17C441.14,31.86,441.36,31.43,441.36,30.75z"
		/>
	<path class="st1" d="M450.18,30.63v-7.92c0-2.55,1.34-3.98,3.66-3.98h0.57c2.26,0,3.66,1.37,3.66,3.86v8.04
		c0,2.06-1.29,3.98-3.66,3.98h-0.57C451.18,34.61,450.18,32.69,450.18,30.63z M454.98,30.49v-7.75c0-0.86-0.31-1.17-0.86-1.17
		c-0.51,0-0.86,0.29-0.86,1.17v7.75c0,0.74,0.29,1.2,0.86,1.2C454.73,31.69,454.98,31.18,454.98,30.49z"/>
	<path class="st1" d="M466.86,18.13h-3.06v-3.29h3.06V18.13z M466.86,34.35h-3.06V18.96h3.06V34.35z"/>
	<path class="st1" d="M472.66,18.96h3v1.8c0.46-0.86,1.4-1.89,2.6-1.89h0.14c1.57,0,2.06,1.4,2.06,2.38v13.1h-3.09V22.82
		c0-0.71-0.2-1.14-0.8-1.14c-0.63,0-0.86,0.43-0.86,1.26v11.42h-3.06v-15.4L472.66,18.96L472.66,18.96z"/>
	<path class="st1" d="M489.46,34.35c-1.03,0-1.83-0.51-1.83-1.89V21.88h-1.75v-2.92h1.75V13.9h3.06v5.06h1.8v2.92h-1.8v8.81
		c0,0.51,0.09,0.71,0.6,0.71h1.2v2.95H489.46z"/>
	<path class="st1" d="M497.76,31.46v-2.78h2.86v2.2c0,0.8,0.26,1.06,0.77,1.06c0.49,0,0.72-0.37,0.72-1.06v-0.26
		c0-0.63-0.06-1.34-0.83-2.2l-1.8-2.06c-1.2-1.4-1.52-2.52-1.52-3.98v-0.43c0-1.95,1-3.23,3.32-3.23h0.54
		c2.46,0,3.12,1.29,3.12,2.78v2.32h-2.75v-1.83c0-0.6-0.2-0.86-0.69-0.86c-0.54,0-0.66,0.34-0.66,0.94v0.26
		c0,0.77,0.17,1.06,0.71,1.72l1.86,2.23c1.43,1.72,1.72,2.69,1.72,4.23v0.4c0,1.83-0.94,3.69-3.46,3.69h-0.6
		C498.65,34.61,497.76,33.21,497.76,31.46z"/>
</g>
</svg>
