<?xml version="1.0" encoding="utf-8"?>
<!-- Generator: Adobe Illustrator 25.2.1, SVG Export Plug-In . SVG Version: 6.00 Build 0)  -->
<svg version="1.1" id="Layer_1" xmlns="http://www.w3.org/2000/svg" xmlns:xlink="http://www.w3.org/1999/xlink" x="0px" y="0px"
	 viewBox="0 0 810.57 92" style="enable-background:new 0 0 810.57 92;" xml:space="preserve">
<style type="text/css">
	.st0{enable-background:new    ;}
	.st1{fill:#FFFFFF;}
	.st2{fill:none;stroke:#F7BB16;stroke-width:2;stroke-linecap:round;stroke-miterlimit:10;}
</style>
<g id="Group_14" transform="translate(-135.399 -1445.67)">
	<g class="st0">
		<path class="st1" d="M477,1497.6h-5.15v-7.1h17.51v7.1h-5.15v33.23H477V1497.6z"/>
		<path class="st1" d="M506.93,1530.84h-7.21v-40.34h7.21V1530.84z"/>
		<path class="st1" d="M533.06,1490.5v7.1h-7.86v8.78h6.18v7.27h-6.18v9.92h8.24v7.26h-15.45v-40.34L533.06,1490.5L533.06,1490.5z"
			/>
		<path class="st1" d="M551.06,1530.84h-7.21v-40.34h11.38c4.39,0,6.62,2.44,6.62,6.72v6.45c0,3.25-1.84,4.88-3.2,5.42
			c1.19,0.43,3.09,1.74,3.09,4.77v13.72c0,1.74,0.33,2.49,0.6,2.98v0.27h-7.21c-0.33-0.43-0.65-1.3-0.65-3.09v-11.76
			c0-1.84-0.43-2.39-1.9-2.39h-1.52L551.06,1530.84L551.06,1530.84z M551.06,1506.93h1.41c1.41,0,2.01-0.54,2.01-2.44v-5.48
			c0-1.73-0.33-2.28-1.79-2.28h-1.63V1506.93z"/>
		<path class="st1" d="M586.57,1501.18V1495c4.23,0,5.15-2.01,5.42-4.5h6.02v40.34h-7.21v-29.66L586.57,1501.18L586.57,1501.18z"/>
	</g>
	<line id="Line_1" class="st2" x1="669.94" y1="1512.93" x2="944.96" y2="1512.93"/>
	<line id="Line_2" class="st2" x1="136.4" y1="1512.93" x2="411.42" y2="1512.93"/>
</g>
<g>
	<path class="st1" d="M333.18,27.44c0,2.55-1.37,4.43-3.98,4.43h-0.71c-2.52,0-3.86-1.52-3.86-4.43V15.02
		c0-3.09,1.09-4.89,4.03-4.89h0.6c3.03,0,3.92,1.97,3.92,4.83L333.18,27.44L333.18,27.44z M329.89,14.85c0-1.09-0.23-1.57-1-1.57
		s-0.97,0.51-0.97,1.57v12.36c0,0.77,0.11,1.43,0.94,1.43c0.83,0,1.03-0.6,1.03-1.43V14.85z"/>
	<path class="st1" d="M350.64,21.69v2.8h-4.03v-2.8H350.64z"/>
	<path class="st1" d="M363.68,15.31v-2.63c1.92-0.11,2.52-0.66,2.83-2.35h2.6v21.29h-3.26V15.31H363.68z"/>
	<path class="st1" d="M375.27,22.09V10.33h7.95v3.2h-4.78v4.78c0.54-1.12,1.43-2.09,2.6-2.09h0.11c1.69,0,2.26,1.29,2.26,2.52v9.13
		c0,2-1.09,4.01-3.89,4.01h-0.6c-3.26,0-3.95-2.15-3.95-3.66v-4.38h3.32v3.75c0,0.72,0.17,1.23,0.86,1.23c0.6,0,0.8-0.54,0.8-1.23
		v-6.78c0-0.6,0-1.26-0.74-1.26c-0.71,0-0.77,0.66-0.77,1.26v1.29h-3.17V22.09L375.27,22.09z"/>
	<path class="st1" d="M397.76,27.44c0,2.55-1.37,4.43-3.98,4.43h-0.71c-2.52,0-3.86-1.52-3.86-4.43V15.02
		c0-3.09,1.09-4.89,4.03-4.89h0.6c3.03,0,3.92,1.97,3.92,4.83V27.44z M394.46,14.85c0-1.09-0.23-1.57-1-1.57
		c-0.77,0-0.97,0.51-0.97,1.57v12.36c0,0.77,0.11,1.43,0.94,1.43c0.83,0,1.03-0.6,1.03-1.43V14.85L394.46,14.85z"/>
	<path class="st1" d="M414.61,22.78v8.84h-3.23V10.33h5.12c2.29,0,3.32,0.97,3.32,3.52v5.04c0,2.52-1.12,3.89-3.32,3.89
		L414.61,22.78L414.61,22.78z M414.61,19.72h0.83c0.97,0,1.12-0.69,1.12-1.54v-3.49c0-0.83-0.17-1.46-1.12-1.46h-0.83V19.72z"/>
	<path class="st1" d="M434.33,26.87c0,2.98-1,5.01-4.12,5.01h-0.54c-3.09,0-4.18-2.03-4.18-5.01V15.02c0-2.95,1.12-4.89,4.15-4.89
		h0.54c3.15,0,4.15,1.95,4.15,4.86V26.87L434.33,26.87z M431.04,14.85c0-1.12-0.37-1.63-1.12-1.63c-0.83,0-1.14,0.54-1.14,1.63V27.1
		c0,0.92,0.26,1.63,1.17,1.63c0.86,0,1.09-0.71,1.09-1.63V14.85z"/>
	<path class="st1" d="M443.45,31.62h-3.23V10.33h3.23V31.62z"/>
	<path class="st1" d="M452.35,10.33l2.77,11.42V10.33h2.95v21.29h-2.63l-3.09-12.25v12.25h-2.92V10.33H452.35z"/>
	<path class="st1" d="M466.36,13.42h-2.72v-3.09h8.64v3.09h-2.72v18.2h-3.21L466.36,13.42L466.36,13.42z"/>
	<path class="st1" d="M477.61,27.81v-4.26h3.2v3.72c0,0.97,0.31,1.49,1.06,1.49c0.77,0,1.06-0.51,1.06-1.83v-0.49
		c0-1.52-0.14-2.06-1.32-3.58l-2.06-2.63c-1.37-1.77-1.77-3.15-1.77-5.26v-0.69c0-2.83,1.43-4.15,3.98-4.15h0.6
		c2.66,0,3.69,1.17,3.69,3.69v3.49h-3.12v-3.06c0-0.72-0.14-1.26-0.92-1.26s-0.94,0.49-0.94,1.49v0.4c0,1.2,0.23,1.86,1.32,3.26
		l2.06,2.66c1.46,1.89,1.92,2.98,1.92,5.38v0.69c0,3.12-1.34,4.98-4.18,4.98h-0.63C478.99,31.85,477.61,30.45,477.61,27.81z"/>
</g>
</svg>
