<?xml version="1.0" encoding="utf-8"?>
<!-- Generator: Adobe Illustrator 25.3.1, SVG Export Plug-In . SVG Version: 6.00 Build 0)  -->
<svg version="1.1" id="Layer_1" xmlns="http://www.w3.org/2000/svg" xmlns:xlink="http://www.w3.org/1999/xlink" x="0px" y="0px"
	 viewBox="0 0 288 86.79" style="enable-background:new 0 0 288 86.79;" xml:space="preserve">
<style type="text/css">
	.st0{fill:#FFFFFF;}
</style>
<g>
	<g>
		<path class="st0" d="M30.56,29.2V17.89h2.26V29.2H30.56z M32.82,31.46V29.2h4.52v2.26H32.82z M37.34,29.2V17.89h2.26V29.2H37.34z"
			/>
		<path class="st0" d="M41.87,31.46V29.2h6.78v-4.52h-6.78v-6.79h9.05v2.26h-6.78v2.26h6.78v9.05H41.87z"/>
		<path class="st0" d="M53.18,31.46V17.89h9.05v2.26h-6.78v2.26h6.78v2.26h-6.78v4.52h6.78v2.26H53.18z"/>
		<path class="st0" d="M73.53,31.46V20.15h-4.52v-2.26h11.31v2.26h-4.53v11.31H73.53z"/>
		<path class="st0" d="M82.58,31.46V17.89h2.26v4.53h4.52v-4.53h2.26v13.57h-2.26v-6.78h-4.52v6.78H82.58z"/>
		<path class="st0" d="M93.89,31.46V17.89h9.05v2.26h-6.78v2.26h6.78v2.26h-6.78v4.52h6.78v2.26H93.89z"/>
		<path class="st0" d="M109.73,31.46V17.89h2.26V29.2h6.78v2.26H109.73z"/>
		<path class="st0" d="M121.04,31.46V17.89h9.05v2.26h-6.78v2.26h6.78v2.26h-6.78v4.52h6.78v2.26H121.04z"/>
		<path class="st0" d="M132.35,31.46V17.89h9.05v2.26h-6.78v2.26h6.78v2.26h-6.78v6.78H132.35z"/>
		<path class="st0" d="M148.18,31.46V20.15h-4.52v-2.26h11.31v2.26h-4.53v11.31H148.18z"/>
		<path class="st0" d="M161.75,31.46V20.15h2.26v4.53h4.52v-4.53h2.26v11.31h-2.26v-4.52h-4.52v4.52H161.75z M164.01,20.15v-2.26
			h4.52v2.26H164.01z"/>
		<path class="st0" d="M173.06,31.46V17.89h2.26v2.26h2.26v2.26h-2.26v9.05H173.06z M179.85,31.46v-6.78h-2.26v-2.26h2.26v-4.53
			h2.26v13.57H179.85z"/>
		<path class="st0" d="M184.37,31.46V17.89h6.78v2.26h-4.52v9.05h4.52v2.26H184.37z M191.16,29.2v-9.05h2.26v9.05H191.16z"/>
		<path class="st0" d="M200.21,31.46V17.89h6.78v2.26h-4.52v2.26h4.52v2.26h-4.52v6.78H200.21z M206.99,22.42v-2.26h2.26v2.26
			H206.99z M206.99,31.46v-6.78h2.26v6.78H206.99z"/>
		<path class="st0" d="M211.52,31.46V17.89h2.26v13.57H211.52z"/>
		<path class="st0" d="M216.04,29.2v-9.05h2.26v9.05H216.04z M218.3,20.15v-2.26h6.78v2.26H218.3z M218.3,31.46V29.2h4.52v2.26
			H218.3z M222.82,29.2v-4.52h-2.26v-2.26h4.52v6.78H222.82z"/>
		<path class="st0" d="M227.35,31.46V17.89h2.26v4.53h4.52v-4.53h2.26v13.57h-2.26v-6.78h-4.52v6.78H227.35z"/>
		<path class="st0" d="M243.18,31.46V20.15h-4.52v-2.26h11.31v2.26h-4.53v11.31H243.18z"/>
		<path class="st0" d="M37.34,49.48V35.9h6.79v2.26H39.6v2.26h4.52v2.26H39.6v4.52h4.52v2.26H37.34z M44.13,40.43v-2.26h2.26v2.26
			H44.13z M44.13,47.21v-4.52h2.26v4.52H44.13z"/>
		<path class="st0" d="M48.65,47.21V35.9h2.26v11.31H48.65z M50.91,49.48v-2.26h4.52v2.26H50.91z M55.44,47.21V35.9h2.26v11.31
			H55.44z"/>
		<path class="st0" d="M64.49,49.48V38.17h-4.52V35.9h11.31v2.26h-4.53v11.31H64.49z"/>
		<path class="st0" d="M78.06,49.48V38.17h-4.52V35.9h11.31v2.26h-4.53v11.31H78.06z"/>
		<path class="st0" d="M87.11,47.21v-9.05h2.26v9.05H87.11z M89.37,38.17V35.9h4.52v2.26H89.37z M89.37,49.48v-2.26h4.52v2.26H89.37
			z M93.89,47.21v-9.05h2.26v9.05H93.89z"/>
		<path class="st0" d="M98.42,49.48V35.9h2.26v2.26h2.26v2.26h-2.26v9.05H98.42z M105.2,49.48v-6.78h-2.26v-2.26h2.26V35.9h2.26
			v13.57H105.2z"/>
		<path class="st0" d="M109.73,49.48v-2.26h6.79v-4.52h-6.79V35.9h9.05v2.26h-6.78v2.26h6.78v9.05H109.73z"/>
		<path class="st0" d="M130.08,49.48V38.17h-4.52V35.9h11.31v2.26h-4.53v11.31H130.08z"/>
		<path class="st0" d="M139.13,47.21v-9.05h2.26v9.05H139.13z M141.39,38.17V35.9h4.52v2.26H141.39z M141.39,49.48v-2.26h4.52v2.26
			H141.39z M145.92,47.21v-9.05h2.26v9.05H145.92z"/>
		<path class="st0" d="M154.97,49.48V35.9h2.26v2.26h2.26v2.26h-2.26v9.05H154.97z M159.49,42.69v-2.26h2.26v2.26H159.49z
			 M164.01,49.48v-9.05h-2.26v-2.26h2.26V35.9h2.26v13.57H164.01z"/>
		<path class="st0" d="M168.54,47.21v-9.05h2.26v9.05H168.54z M170.8,38.17V35.9h4.52v2.26H170.8z M170.8,49.48v-2.26h4.52v2.26
			H170.8z M175.32,47.21v-9.05h2.26v9.05H175.32z"/>
		<path class="st0" d="M179.85,44.95V35.9h2.26v9.05H179.85z M182.11,47.21v-2.26h2.26v2.26H182.11z M184.37,49.48v-2.26h2.26v2.26
			H184.37z M186.63,47.21v-2.26h2.26v2.26H186.63z M188.89,44.95V35.9h2.26v9.05H188.89z"/>
		<path class="st0" d="M193.42,49.48V35.9h9.05v2.26h-6.78v2.26h6.78v2.26h-6.78v4.52h6.78v2.26H193.42z"/>
		<path class="st0" d="M209.25,49.48V38.17h2.26v4.53h4.52v-4.53h2.26v11.31h-2.26v-4.52h-4.52v4.52H209.25z M211.51,38.17V35.9
			h4.52v2.26H211.51z"/>
		<path class="st0" d="M220.56,49.48V35.9h6.78v2.26h-4.52v2.26h4.52v2.26h-4.52v6.78H220.56z M227.35,40.43v-2.26h2.26v2.26H227.35
			z M227.35,49.48v-6.78h2.26v6.78H227.35z"/>
		<path class="st0" d="M236.4,49.48V38.17h-4.52V35.9h11.31v2.26h-4.53v11.31H236.4z"/>
		<path class="st0" d="M30.55,67.49V56.18h-4.52v-2.26h11.31v2.26h-4.53v11.31H30.55z"/>
		<path class="st0" d="M39.6,65.23v-9.05h2.26v9.05H39.6z M41.87,56.18v-2.26h4.52v2.26H41.87z M41.87,67.49v-2.26h4.52v2.26H41.87z
			 M46.39,65.23v-9.05h2.26v9.05H46.39z"/>
		<path class="st0" d="M55.44,65.23v-9.05h2.26v9.05H55.44z M57.7,56.18v-2.26h4.52v2.26H57.7z M57.7,67.49v-2.26h4.52v2.26H57.7z
			 M62.22,58.44v-2.26h2.26v2.26H62.22z M62.22,65.23v-2.26h2.26v2.26H62.22z"/>
		<path class="st0" d="M66.75,65.23v-9.05h2.26v9.05H66.75z M69.01,56.18v-2.26h4.52v2.26H69.01z M69.01,67.49v-2.26h4.52v2.26
			H69.01z M73.53,65.23v-9.05h2.26v9.05H73.53z"/>
		<path class="st0" d="M78.06,67.49V53.92h2.26v11.31h6.78v2.26H78.06z"/>
		<path class="st0" d="M89.37,67.49V53.92h2.26v11.31h6.78v2.26H89.37z"/>
		<path class="st0" d="M100.68,67.49V53.92h9.05v2.26h-6.78v2.26h6.78v2.26h-6.78v4.52h6.78v2.26H100.68z"/>
		<path class="st0" d="M111.99,65.23v-9.05h2.26v9.05H111.99z M114.25,56.18v-2.26h4.52v2.26H114.25z M114.25,67.49v-2.26h4.52v2.26
			H114.25z M118.77,58.44v-2.26h2.26v2.26H118.77z M118.77,65.23v-2.26h2.26v2.26H118.77z"/>
		<path class="st0" d="M127.82,67.49V56.18h-4.52v-2.26h11.31v2.26h-4.53v11.31H127.82z"/>
		<path class="st0" d="M141.39,67.49V53.92h2.26v4.53h4.52v-4.53h2.26v13.57h-2.26v-6.78h-4.52v6.78H141.39z"/>
		<path class="st0" d="M152.7,67.49V53.92h2.26v13.57H152.7z"/>
		<path class="st0" d="M157.23,67.49v-2.26h6.78v-4.52h-6.78v-6.79h9.05v2.26h-6.78v2.26h6.78v9.05H157.23z"/>
		<path class="st0" d="M173.06,67.49V53.92h6.78v2.26h-4.52v2.26h4.52v2.26h-4.52v6.78H173.06z M179.84,58.44v-2.26h2.26v2.26
			H179.84z M179.84,67.49v-6.78h2.26v6.78H179.84z"/>
		<path class="st0" d="M184.37,67.49V53.92h9.05v2.26h-6.78v2.26h6.78v2.26h-6.78v4.52h6.78v2.26H184.37z"/>
		<path class="st0" d="M195.68,65.23v-9.05h2.26v9.05H195.68z M197.94,56.18v-2.26h4.52v2.26H197.94z M197.94,67.49v-2.26h4.52v2.26
			H197.94z M202.46,58.44v-2.26h2.26v2.26H202.46z M202.46,65.23v-2.26h2.26v2.26H202.46z"/>
		<path class="st0" d="M206.99,65.23v-9.05h2.26v9.05H206.99z M209.25,56.18v-2.26h4.52v2.26H209.25z M209.25,67.49v-2.26h4.52v2.26
			H209.25z M213.78,65.23v-9.05h2.26v9.05H213.78z"/>
		<path class="st0" d="M218.3,67.49V53.92h6.78v2.26h-4.52v2.26h4.52v2.26h-4.52v6.78H218.3z M225.09,58.44v-2.26h2.26v2.26H225.09z
			 M225.09,67.49v-6.78h2.26v6.78H225.09z"/>
		<path class="st0" d="M229.61,67.49V53.92h6.78v2.26h-4.52v9.05h4.52v2.26H229.61z M236.4,65.23v-9.05h2.26v9.05H236.4z"/>
		<path class="st0" d="M240.92,67.49v-2.26h6.78v-4.52h-6.78v-6.79h9.05v2.26h-6.78v2.26h6.78v9.05H240.92z"/>
		<path class="st0" d="M252.23,67.49v-2.26h2.26v2.26H252.23z"/>
	</g>
</g>
</svg>
