<?xml version="1.0" encoding="utf-8"?>
<!-- Generator: Adobe Illustrator 25.3.1, SVG Export Plug-In . SVG Version: 6.00 Build 0)  -->
<svg version="1.1" id="Layer_1" xmlns="http://www.w3.org/2000/svg" xmlns:xlink="http://www.w3.org/1999/xlink" x="0px" y="0px"
	 viewBox="0 0 288 144" style="enable-background:new 0 0 288 144;" xml:space="preserve">
<style type="text/css">
	.st0{fill:#F3B22D;}
	.st1{fill:#FFFFFF;}
</style>
<rect x="41.64" y="52.85" class="st0" width="208.69" height="36.29"/>
<g>
	<path class="st1" d="M129.8,83.33l-4.15-11.18l-1.37-3.78v14.96h-3.56V58.66h3.48l3.85,11.29l1.26,3.81V58.66h3.52v24.66H129.8z"/>
	<path class="st1" d="M135.58,83.33V58.66h9.85v3.48h-5.92v6.81h4.11v3.26h-4.11v7.52h5.92v3.59H135.58z"/>
	<path class="st1" d="M155.13,83.33l-2.41-8.59l-2.59,8.59h-3.81l4.22-12.33l-3.96-12.33h4.07l2.22,8.78l2.52-8.78h3.78l-4.07,11.89
		l4.07,12.78H155.13z"/>
	<path class="st1" d="M167.5,62.26v21.07h-3.93V62.26h-3.81v-3.59h11.48v3.59H167.5z"/>
</g>
</svg>
