<?xml version="1.0" encoding="utf-8"?>
<!-- Generator: Adobe Illustrator 25.3.1, SVG Export Plug-In . SVG Version: 6.00 Build 0)  -->
<svg version="1.1" id="Layer_1" xmlns="http://www.w3.org/2000/svg" xmlns:xlink="http://www.w3.org/1999/xlink" x="0px" y="0px"
	 viewBox="0 0 288 223.59" style="enable-background:new 0 0 288 223.59;" xml:space="preserve">
<style type="text/css">
	.st0{fill:#FFFFFF;}
</style>
<g>
	<path class="st0" d="M42.73,28.69V16.93h2.35v11.75H42.73z M45.08,31.04v-2.35h2.35v2.35H45.08z M47.43,28.69v-4.7h2.35v4.7H47.43z
		 M49.78,31.04v-2.35h2.35v2.35H49.78z M52.13,28.69V16.93h2.35v11.75H52.13z"/>
	<path class="st0" d="M56.83,31.04V16.93h2.35v4.7h4.7v-4.7h2.35v14.11h-2.35v-7.05h-4.7v7.05H56.83z"/>
	<path class="st0" d="M68.59,31.04V16.93h9.4v2.35h-7.05v2.35h7.05v2.35h-7.05v4.7h7.05v2.35H68.59z"/>
	<path class="st0" d="M80.35,31.04V16.93h2.35v2.35h2.35v2.35H82.7v9.4H80.35z M87.4,31.04v-7.05h-2.35v-2.35h2.35v-4.7h2.35v14.11
		H87.4z"/>
	<path class="st0" d="M96.8,21.64v-4.7h2.35v4.7H96.8z M99.15,23.99v-2.35h2.35v2.35H99.15z M101.5,31.04v-7.05h2.35v7.05H101.5z
		 M103.85,23.99v-2.35h2.35v2.35H103.85z M106.2,21.64v-4.7h2.35v4.7H106.2z"/>
	<path class="st0" d="M110.91,28.69v-9.4h2.35v9.4H110.91z M113.26,19.28v-2.35h4.7v2.35H113.26z M113.26,31.04v-2.35h4.7v2.35
		H113.26z M117.96,28.69v-9.4h2.35v9.4H117.96z"/>
	<path class="st0" d="M122.66,28.69V16.93h2.35v11.75H122.66z M125.01,31.04v-2.35h4.7v2.35H125.01z M129.71,28.69V16.93h2.35v11.75
		H129.71z"/>
	<path class="st0" d="M139.12,28.69v-9.4h2.35v9.4H139.12z M141.47,19.28v-2.35h4.7v2.35H141.47z M141.47,31.04v-2.35h4.7v2.35
		H141.47z M146.17,21.64v-2.35h2.35v2.35H146.17z M146.17,28.69v-2.35h2.35v2.35H146.17z"/>
	<path class="st0" d="M150.87,28.69v-9.4h2.35v9.4H150.87z M153.22,19.28v-2.35h4.7v2.35H153.22z M153.22,31.04v-2.35h4.7v2.35
		H153.22z M157.92,28.69v-9.4h2.35v9.4H157.92z"/>
	<path class="st0" d="M162.63,31.04V16.93h2.35v2.35h2.35v2.35h-2.35v9.4H162.63z M167.33,23.99v-2.35h2.35v2.35H167.33z
		 M172.03,31.04v-9.4h-2.35v-2.35h2.35v-2.35h2.35v14.11H172.03z"/>
	<path class="st0" d="M176.73,31.04V16.93h9.4v7.05h-7.05v7.05H176.73z M183.79,21.64v-2.35h-4.7v2.35H183.79z"/>
	<path class="st0" d="M188.49,31.04V16.93h2.35v11.75h7.05v2.35H188.49z"/>
	<path class="st0" d="M200.25,31.04V16.93h9.4v2.35h-7.05v2.35h7.05v2.35h-7.05v4.7h7.05v2.35H200.25z"/>
	<path class="st0" d="M216.7,31.04V19.28H212v-2.35h11.75v2.35h-4.7v11.76H216.7z"/>
	<path class="st0" d="M226.11,31.04V16.93h9.4v2.35h-7.05v2.35h7.05v2.35h-7.05v4.7h7.05v2.35H226.11z"/>
	<path class="st0" d="M48.61,49.76V35.65h2.35v11.75h7.05v2.35H48.61z"/>
	<path class="st0" d="M60.36,49.76V35.65h9.4V38h-7.05v2.35h7.05v2.35h-7.05v4.7h7.05v2.35H60.36z"/>
	<path class="st0" d="M72.12,45.06v-9.4h2.35v9.4H72.12z M74.47,47.41v-2.35h2.35v2.35H74.47z M76.82,49.76v-2.35h2.35v2.35H76.82z
		 M79.17,47.41v-2.35h2.35v2.35H79.17z M81.52,45.06v-9.4h2.35v9.4H81.52z"/>
	<path class="st0" d="M86.22,49.76V35.65h9.4V38h-7.05v2.35h7.05v2.35h-7.05v4.7h7.05v2.35H86.22z"/>
	<path class="st0" d="M97.98,49.76V35.65h2.35v11.75h7.05v2.35H97.98z"/>
	<path class="st0" d="M109.73,49.76v-2.35h7.05v-4.7h-7.05v-7.05h9.4V38h-7.05v2.35h7.05v9.4H109.73z"/>
	<path class="st0" d="M121.49,52.11v-4.7h2.35v4.7H121.49z"/>
	<path class="st0" d="M130.89,47.41V38h2.35v9.4H130.89z M133.24,38v-2.35h4.7V38H133.24z M133.24,49.76v-2.35h4.7v2.35H133.24z
		 M137.94,40.36V38h2.35v2.35H137.94z M137.94,47.41v-2.35h2.35v2.35H137.94z"/>
	<path class="st0" d="M142.65,49.76V35.65H145v4.7h4.7v-4.7h2.35v14.11h-2.35v-7.05H145v7.05H142.65z"/>
	<path class="st0" d="M154.4,47.41V38h2.35v9.4H154.4z M156.75,38v-2.35h4.7V38H156.75z M156.75,49.76v-2.35h4.7v2.35H156.75z
		 M161.45,47.41V38h2.35v9.4H161.45z"/>
	<path class="st0" d="M166.16,47.41V38h2.35v9.4H166.16z M168.51,38v-2.35h4.7V38H168.51z M168.51,49.76v-2.35h4.7v2.35H168.51z
		 M173.21,47.41V38h2.35v9.4H173.21z"/>
	<path class="st0" d="M177.91,49.76v-2.35h7.05v-4.7h-7.05v-7.05h9.4V38h-7.05v2.35h7.05v9.4H177.91z"/>
	<path class="st0" d="M189.67,49.76V35.65h9.4V38h-7.05v2.35h7.05v2.35h-7.05v4.7h7.05v2.35H189.67z"/>
	<path class="st0" d="M210.82,49.76V38h-4.7v-2.35h11.75V38h-4.7v11.76H210.82z"/>
	<path class="st0" d="M220.23,47.41V38h2.35v9.4H220.23z M222.58,38v-2.35h4.7V38H222.58z M222.58,49.76v-2.35h4.7v2.35H222.58z
		 M227.28,47.41V38h2.35v9.4H227.28z"/>
	<path class="st0" d="M32.15,66.13v-9.4h2.35v9.4H32.15z M34.5,56.73v-2.35h4.7v2.35H34.5z M34.5,68.48v-2.35h4.7v2.35H34.5z
		 M39.2,59.08v-2.35h2.35v2.35H39.2z M39.2,66.13v-2.35h2.35v2.35H39.2z"/>
	<path class="st0" d="M43.91,68.48V56.73h2.35v4.7h4.7v-4.7h2.35v11.76h-2.35v-4.7h-4.7v4.7H43.91z M46.26,56.73v-2.35h4.7v2.35
		H46.26z"/>
	<path class="st0" d="M55.66,68.48v-2.35h7.05v-4.7h-7.05v-7.05h9.4v2.35h-7.05v2.35h7.05v9.4H55.66z"/>
	<path class="st0" d="M67.42,68.48V54.37h2.35v4.7h4.7v-4.7h2.35v14.11h-2.35v-7.05h-4.7v7.05H67.42z"/>
	<path class="st0" d="M83.87,66.13v-9.4h2.35v9.4H83.87z M86.22,56.73v-2.35h4.7v2.35H86.22z M86.22,68.48v-2.35h4.7v2.35H86.22z
		 M90.92,66.13v-9.4h2.35v9.4H90.92z"/>
	<path class="st0" d="M95.63,66.13V54.37h2.35v11.75H95.63z M97.98,68.48v-2.35h4.7v2.35H97.98z M102.68,66.13V54.37h2.35v11.75
		H102.68z"/>
	<path class="st0" d="M112.08,68.48V56.73h-4.7v-2.35h11.76v2.35h-4.7v11.76H112.08z"/>
	<path class="st0" d="M126.19,68.48V56.73h2.35v4.7h4.7v-4.7h2.35v11.76h-2.35v-4.7h-4.7v4.7H126.19z M128.54,56.73v-2.35h4.7v2.35
		H128.54z"/>
	<path class="st0" d="M137.94,68.48V54.37h2.35v2.35h2.35v2.35h-2.35v9.4H137.94z M145,68.48v-7.05h-2.35v-2.35H145v-4.7h2.35v14.11
		H145z"/>
	<path class="st0" d="M149.7,68.48V54.37h7.05v2.35h-4.7v9.4h4.7v2.35H149.7z M156.75,66.13v-9.4h2.35v9.4H156.75z"/>
	<path class="st0" d="M166.16,68.48v-2.35h7.05v-4.7h-7.05v-7.05h9.4v2.35h-7.05v2.35h7.05v9.4H166.16z"/>
	<path class="st0" d="M177.91,68.48V54.37h9.4v7.05h-7.05v7.05H177.91z M184.96,59.08v-2.35h-4.7v2.35H184.96z"/>
	<path class="st0" d="M189.67,68.48V54.37h2.35v14.11H189.67z"/>
	<path class="st0" d="M194.37,68.48V54.37h2.35v2.35h2.35v2.35h-2.35v9.4H194.37z M201.42,68.48v-7.05h-2.35v-2.35h2.35v-4.7h2.35
		v14.11H201.42z"/>
	<path class="st0" d="M215.52,68.48V56.73h-4.7v-2.35h11.75v2.35h-4.7v11.76H215.52z"/>
	<path class="st0" d="M224.93,68.48V54.37h2.35v4.7h4.7v-4.7h2.35v14.11h-2.35v-7.05h-4.7v7.05H224.93z"/>
	<path class="st0" d="M236.68,68.48V54.37h9.4v2.35h-7.05v2.35h7.05v2.35h-7.05v4.7h7.05v2.35H236.68z"/>
	<path class="st0" d="M41.55,84.85V73.1h2.35v11.75H41.55z M43.9,87.2v-2.35h2.35v2.35H43.9z M46.25,84.85v-4.7h2.35v4.7H46.25z
		 M48.6,87.2v-2.35h2.35v2.35H48.6z M50.96,84.85V73.1h2.35v11.75H50.96z"/>
	<path class="st0" d="M55.66,87.2V73.1h2.35v4.7h4.7v-4.7h2.35V87.2h-2.35v-7.05h-4.7v7.05H55.66z"/>
	<path class="st0" d="M67.41,87.2V73.1h9.4v2.35h-7.05v2.35h7.05v2.35h-7.05v4.7h7.05v2.35H67.41z"/>
	<path class="st0" d="M79.17,87.2V73.1h9.4v2.35h-7.05v2.35h7.05v2.35h-7.05v4.7h7.05v2.35H79.17z"/>
	<path class="st0" d="M90.92,87.2V73.1h2.35v11.75h7.05v2.35H90.92z"/>
	<path class="st0" d="M107.38,87.2V73.1h9.4v2.35h-7.05v2.35h7.05v2.35h-7.05v7.05H107.38z"/>
	<path class="st0" d="M119.14,84.85v-9.4h2.35v9.4H119.14z M121.49,75.45V73.1h4.7v2.35H121.49z M121.49,87.2v-2.35h4.7v2.35H121.49
		z M126.19,84.85v-9.4h2.35v9.4H126.19z"/>
	<path class="st0" d="M130.89,87.2V73.1h7.05v2.35h-4.7v2.35h4.7v2.35h-4.7v7.05H130.89z M137.94,77.8v-2.35h2.35v2.35H137.94z
		 M137.94,87.2v-7.05h2.35v7.05H137.94z"/>
	<path class="st0" d="M147.35,87.2V73.1h9.4v7.05h-7.05v7.05H147.35z M154.4,77.8v-2.35h-4.7v2.35H154.4z"/>
	<path class="st0" d="M159.1,87.2V73.1h7.05v2.35h-4.7v2.35h4.7v2.35h-4.7v7.05H159.1z M166.15,77.8v-2.35h2.35v2.35H166.15z
		 M166.15,87.2v-7.05h2.35v7.05H166.15z"/>
	<path class="st0" d="M170.86,87.2V73.1h2.35V87.2H170.86z"/>
	<path class="st0" d="M182.61,77.8v-2.35h-7.05V73.1h9.4v4.7H182.61z M175.56,87.2v-4.7h2.35v2.35h7.05v2.35H175.56z M177.91,82.5
		v-2.35h2.35v2.35H177.91z M180.26,80.15V77.8h2.35v2.35H180.26z"/>
	<path class="st0" d="M187.31,87.2V73.1h9.4v2.35h-7.05v2.35h7.05v2.35h-7.05v4.7h7.05v2.35H187.31z"/>
	<path class="st0" d="M199.07,87.2v-2.35h7.05v-4.7h-7.05V73.1h9.4v2.35h-7.05v2.35h7.05v9.4H199.07z"/>
	<path class="st0" d="M215.53,84.85v-9.4h2.35v9.4H215.53z M217.88,75.45V73.1h4.7v2.35H217.88z M217.88,87.2v-2.35h4.7v2.35H217.88
		z M222.58,84.85v-9.4h2.35v9.4H222.58z"/>
	<path class="st0" d="M227.28,87.2V73.1h7.05v2.35h-4.7v2.35h4.7v2.35h-4.7v7.05H227.28z M234.33,77.8v-2.35h2.35v2.35H234.33z
		 M234.33,87.2v-7.05h2.35v7.05H234.33z"/>
	<path class="st0" d="M34.5,103.57v-9.4h2.35v9.4H34.5z M36.85,94.17v-2.35h4.7v2.35H36.85z M36.85,105.92v-2.35h4.7v2.35H36.85z
		 M41.55,96.52v-2.35h2.35v2.35H41.55z M41.55,103.57v-2.35h2.35v2.35H41.55z"/>
	<path class="st0" d="M46.26,103.57v-9.4h2.35v9.4H46.26z M48.61,94.17v-2.35h4.7v2.35H48.61z M48.61,105.92v-2.35h4.7v2.35H48.61z
		 M53.31,103.57v-9.4h2.35v9.4H53.31z"/>
	<path class="st0" d="M58.01,105.92V91.82h2.35v2.35h2.35v2.35h-2.35v9.4H58.01z M65.06,105.92v-7.05h-2.35v-2.35h2.35v-4.7h2.35
		v14.11H65.06z"/>
	<path class="st0" d="M74.47,105.92V94.17h-4.7v-2.35h11.76v2.35h-4.7v11.76H74.47z"/>
	<path class="st0" d="M83.87,105.92V91.82h2.35v14.11H83.87z"/>
	<path class="st0" d="M88.57,105.92V91.82h2.35v2.35h2.35v2.35h-2.35v9.4H88.57z M95.62,105.92v-7.05h-2.35v-2.35h2.35v-4.7h2.35
		v14.11H95.62z"/>
	<path class="st0" d="M100.33,103.57V91.82h2.35v11.75H100.33z M102.68,105.92v-2.35h4.7v2.35H102.68z M107.38,103.57V91.82h2.35
		v11.75H107.38z"/>
	<path class="st0" d="M112.08,105.92V91.82h9.4v2.35h-7.05v2.35h7.05v2.35h-7.05v4.7h7.05v2.35H112.08z"/>
	<path class="st0" d="M128.54,105.92V91.82h9.4v7.05h-7.05v7.05H128.54z M135.59,96.52v-2.35h-4.7v2.35H135.59z"/>
	<path class="st0" d="M140.29,105.92V91.82h2.35v11.75h7.05v2.35H140.29z"/>
	<path class="st0" d="M152.05,105.92V94.17h2.35v4.7h4.7v-4.7h2.35v11.76h-2.35v-4.7h-4.7v4.7H152.05z M154.4,94.17v-2.35h4.7v2.35
		H154.4z"/>
	<path class="st0" d="M163.81,96.52v-4.7h2.35v4.7H163.81z M166.16,98.87v-2.35h2.35v2.35H166.16z M168.51,105.92v-7.05h2.35v7.05
		H168.51z M170.86,98.87v-2.35h2.35v2.35H170.86z M173.21,96.52v-4.7h2.35v4.7H173.21z"/>
	<path class="st0" d="M177.91,105.92V91.82h2.35v14.11H177.91z"/>
	<path class="st0" d="M182.61,105.92V91.82h2.35v2.35h2.35v2.35h-2.35v9.4H182.61z M189.66,105.92v-7.05h-2.35v-2.35h2.35v-4.7h2.35
		v14.11H189.66z"/>
	<path class="st0" d="M194.37,103.57v-9.4h2.35v9.4H194.37z M196.72,94.17v-2.35h7.05v2.35H196.72z M196.72,105.92v-2.35h4.7v2.35
		H196.72z M201.42,103.57v-4.7h-2.35v-2.35h4.7v7.05H201.42z"/>
	<path class="st0" d="M210.82,105.92V91.82h9.4v2.35h-7.05v2.35h7.05v2.35h-7.05v7.05H210.82z"/>
	<path class="st0" d="M222.58,103.57v-9.4h2.35v9.4H222.58z M224.93,94.17v-2.35h4.7v2.35H224.93z M224.93,105.92v-2.35h4.7v2.35
		H224.93z M229.63,103.57v-9.4h2.35v9.4H229.63z"/>
	<path class="st0" d="M234.33,105.92V91.82h7.05v2.35h-4.7v2.35h4.7v2.35h-4.7v7.05H234.33z M241.39,96.52v-2.35h2.35v2.35H241.39z
		 M241.39,105.92v-7.05h2.35v7.05H241.39z"/>
	<path class="st0" d="M19.22,124.64v-11.76h-4.7v-2.35h11.76v2.35h-4.7v11.76H19.22z"/>
	<path class="st0" d="M28.62,124.64v-14.11h2.35v4.7h4.7v-4.7h2.35v14.11h-2.35v-7.05h-4.7v7.05H28.62z"/>
	<path class="st0" d="M40.38,124.64v-14.11h9.4v2.35h-7.05v2.35h7.05v2.35h-7.05v4.7h7.05v2.35H40.38z"/>
	<path class="st0" d="M56.84,122.29v-9.4h2.35v9.4H56.84z M59.19,112.89v-2.35h4.7v2.35H59.19z M59.19,124.64v-2.35h4.7v2.35H59.19z
		 M63.89,115.24v-2.35h2.35v2.35H63.89z M63.89,122.29v-2.35h2.35v2.35H63.89z"/>
	<path class="st0" d="M68.59,124.64v-14.11h2.35v4.7h4.7v-4.7h2.35v14.11h-2.35v-7.05h-4.7v7.05H68.59z"/>
	<path class="st0" d="M80.35,124.64v-11.76h2.35v4.7h4.7v-4.7h2.35v11.76H87.4v-4.7h-4.7v4.7H80.35z M82.7,112.89v-2.35h4.7v2.35
		H82.7z"/>
	<path class="st0" d="M92.1,124.64v-14.11h2.35v2.35h2.35v2.35h-2.35v9.4H92.1z M99.15,124.64v-7.05H96.8v-2.35h2.35v-4.7h2.35
		v14.11H99.15z"/>
	<path class="st0" d="M103.86,122.29v-9.4h2.35v9.4H103.86z M106.21,112.89v-2.35h4.7v2.35H106.21z M106.21,124.64v-2.35h4.7v2.35
		H106.21z M110.91,115.24v-2.35h2.35v2.35H110.91z M110.91,122.29v-2.35h2.35v2.35H110.91z"/>
	<path class="st0" d="M115.61,124.64v-14.11h9.4v2.35h-7.05v2.35h7.05v2.35h-7.05v4.7h7.05v2.35H115.61z"/>
	<path class="st0" d="M136.77,124.64v-11.76h-4.7v-2.35h11.76v2.35h-4.7v11.76H136.77z"/>
	<path class="st0" d="M146.17,122.29v-9.4h2.35v9.4H146.17z M148.52,112.89v-2.35h4.7v2.35H148.52z M148.52,124.64v-2.35h4.7v2.35
		H148.52z M153.23,122.29v-9.4h2.35v9.4H153.23z"/>
	<path class="st0" d="M162.63,122.29v-11.75h2.35v11.75H162.63z M164.98,124.64v-2.35h2.35v2.35H164.98z M167.33,122.29v-4.7h2.35
		v4.7H167.33z M169.68,124.64v-2.35h2.35v2.35H169.68z M172.03,122.29v-11.75h2.35v11.75H172.03z"/>
	<path class="st0" d="M176.74,124.64v-14.11h2.35v14.11H176.74z"/>
	<path class="st0" d="M181.44,124.64v-14.11h2.35v2.35h2.35v2.35h-2.35v9.4H181.44z M188.49,124.64v-7.05h-2.35v-2.35h2.35v-4.7
		h2.35v14.11H188.49z"/>
	<path class="st0" d="M197.89,124.64v-14.11h7.05v2.35h-4.7v2.35h4.7v2.35h-4.7v4.7h4.7v2.35H197.89z M204.94,115.24v-2.35h2.35
		v2.35H204.94z M204.94,122.29v-4.7h2.35v4.7H204.94z"/>
	<path class="st0" d="M209.65,124.64v-14.11H212v14.11H209.65z"/>
	<path class="st0" d="M214.35,122.29v-9.4h2.35v9.4H214.35z M216.7,112.89v-2.35h7.05v2.35H216.7z M216.7,124.64v-2.35h4.7v2.35
		H216.7z M221.4,122.29v-4.7h-2.35v-2.35h4.7v7.05H221.4z"/>
	<path class="st0" d="M226.1,122.29v-9.4h2.35v9.4H226.1z M228.46,112.89v-2.35h7.05v2.35H228.46z M228.46,124.64v-2.35h4.7v2.35
		H228.46z M233.16,122.29v-4.7h-2.35v-2.35h4.7v7.05H233.16z"/>
	<path class="st0" d="M237.86,124.64v-14.11h9.4v2.35h-7.05v2.35h7.05v2.35h-7.05v4.7h7.05v2.35H237.86z"/>
	<path class="st0" d="M249.61,124.64v-14.11h7.05v2.35h-4.7v2.35h4.7v2.35h-4.7v7.05H249.61z M256.67,115.24v-2.35h2.35v2.35H256.67
		z M256.67,124.64v-7.05h2.35v7.05H256.67z"/>
	<path class="st0" d="M261.37,119.94v-9.4h2.35v9.4H261.37z M261.37,124.64v-2.35h2.35v2.35H261.37z"/>
</g>
<g>
	<path class="st0" d="M68.59,167.19v-11.75h2.35v4.7h4.7v-4.7h2.35v11.75h-2.35v-4.7h-4.7v4.7H68.59z M70.94,155.43v-2.35h4.7v2.35
		H70.94z"/>
	<path class="st0" d="M80.35,167.19v-14.11h7.05v2.35h-4.7v2.35h4.7v2.35h-4.7v7.05H80.35z M87.4,157.79v-2.35h2.35v2.35H87.4z
		 M87.4,167.19v-7.05h2.35v7.05H87.4z"/>
	<path class="st0" d="M92.1,167.19v-14.11h9.4v2.35h-7.05v2.35h7.05v2.35h-7.05v4.7h7.05v2.35H92.1z"/>
	<path class="st0" d="M108.56,157.79v-4.7h2.35v4.7H108.56z M110.91,160.14v-2.35h2.35v2.35H110.91z M113.26,167.19v-7.05h2.35v7.05
		H113.26z M115.61,160.14v-2.35h2.35v2.35H115.61z M117.96,157.79v-4.7h2.35v4.7H117.96z"/>
	<path class="st0" d="M122.66,164.84v-9.4h2.35v9.4H122.66z M125.01,155.43v-2.35h4.7v2.35H125.01z M125.01,167.19v-2.35h4.7v2.35
		H125.01z M129.71,164.84v-9.4h2.35v9.4H129.71z"/>
	<path class="st0" d="M134.42,164.84v-11.75h2.35v11.75H134.42z M136.77,167.19v-2.35h4.7v2.35H136.77z M141.47,164.84v-11.75h2.35
		v11.75H141.47z"/>
	<path class="st0" d="M150.87,167.19v-14.11h7.05v2.35h-4.7v2.35h4.7v2.35h-4.7v7.05H150.87z M157.92,157.79v-2.35h2.35v2.35H157.92
		z M157.92,167.19v-7.05h2.35v7.05H157.92z"/>
	<path class="st0" d="M162.63,167.19v-14.11h9.4v2.35h-7.05v2.35h7.05v2.35h-7.05v4.7h7.05v2.35H162.63z"/>
	<path class="st0" d="M174.38,167.19v-11.75h2.35v4.7h4.7v-4.7h2.35v11.75h-2.35v-4.7h-4.7v4.7H174.38z M176.73,155.43v-2.35h4.7
		v2.35H176.73z"/>
	<path class="st0" d="M186.14,167.19v-14.11h7.05v2.35h-4.7v9.4h4.7v2.35H186.14z M193.19,164.84v-9.4h2.35v9.4H193.19z"/>
	<path class="st0" d="M197.89,157.79v-4.7h2.35v4.7H197.89z M200.25,160.14v-2.35h2.35v2.35H200.25z M202.6,167.19v-7.05h2.35v7.05
		H202.6z M204.95,160.14v-2.35h2.35v2.35H204.95z M207.3,157.79v-4.7h2.35v4.7H207.3z"/>
	<path class="st0" d="M95.63,185.91V171.8h9.4v2.35h-7.05v2.35h7.05v2.35h-7.05v7.05H95.63z"/>
	<path class="st0" d="M107.38,183.56v-9.4h2.35v9.4H107.38z M109.73,174.15v-2.35h4.7v2.35H109.73z M109.73,185.91v-2.35h4.7v2.35
		H109.73z M114.43,183.56v-9.4h2.35v9.4H114.43z"/>
	<path class="st0" d="M119.14,185.91V171.8h7.05v2.35h-4.7v2.35h4.7v2.35h-4.7v7.05H119.14z M126.19,176.51v-2.35h2.35v2.35H126.19z
		 M126.19,185.91v-7.05h2.35v7.05H126.19z"/>
	<path class="st0" d="M135.59,176.51v-4.7h2.35v4.7H135.59z M137.94,178.86v-2.35h2.35v2.35H137.94z M140.29,185.91v-7.05h2.35v7.05
		H140.29z M142.64,178.86v-2.35h2.35v2.35H142.64z M144.99,176.51v-4.7h2.35v4.7H144.99z"/>
	<path class="st0" d="M149.7,183.56v-9.4h2.35v9.4H149.7z M152.05,174.15v-2.35h4.7v2.35H152.05z M152.05,185.91v-2.35h4.7v2.35
		H152.05z M156.75,183.56v-9.4h2.35v9.4H156.75z"/>
	<path class="st0" d="M161.45,183.56V171.8h2.35v11.75H161.45z M163.8,185.91v-2.35h4.7v2.35H163.8z M168.5,183.56V171.8h2.35v11.75
		H168.5z"/>
	<path class="st0" d="M173.21,185.91V171.8h7.05v2.35h-4.7v2.35h4.7v2.35h-4.7v7.05H173.21z M180.26,176.51v-2.35h2.35v2.35H180.26z
		 M180.26,185.91v-7.05h2.35v7.05H180.26z"/>
	<path class="st0" d="M88.57,202.28v-9.4h2.35v9.4H88.57z M90.92,192.87v-2.35h4.7v2.35H90.92z M90.92,204.63v-2.35h4.7v2.35H90.92z
		 M95.62,202.28v-9.4h2.35v9.4H95.62z"/>
	<path class="st0" d="M100.33,204.63v-14.11h2.35v2.35h2.35v2.35h-2.35v9.4H100.33z M107.38,204.63v-7.05h-2.35v-2.35h2.35v-4.7
		h2.35v14.11H107.38z"/>
	<path class="st0" d="M112.08,204.63v-14.11h9.4v2.35h-7.05v2.35h7.05v2.35h-7.05v4.7h7.05v2.35H112.08z"/>
	<path class="st0" d="M128.54,204.63v-2.35h7.05v-4.7h-7.05v-7.05h9.4v2.35h-7.05v2.35h7.05v9.4H128.54z"/>
	<path class="st0" d="M140.29,204.63v-14.11h2.35v4.7h4.7v-4.7h2.35v14.11h-2.35v-7.05h-4.7v7.05H140.29z"/>
	<path class="st0" d="M152.05,202.28v-9.4h2.35v9.4H152.05z M154.4,192.87v-2.35h4.7v2.35H154.4z M154.4,204.63v-2.35h4.7v2.35
		H154.4z M159.1,202.28v-9.4h2.35v9.4H159.1z"/>
	<path class="st0" d="M168.51,204.63v-11.75h-4.7v-2.35h11.75v2.35h-4.7v11.75H168.51z"/>
	<path class="st0" d="M177.91,195.23v-2.35h2.35v2.35H177.91z M180.26,192.87v-2.35h7.05v2.35H180.26z M182.61,199.93v-2.35h2.35
		v2.35H182.61z M182.61,204.63v-2.35h2.35v2.35H182.61z M184.96,197.58v-2.35h2.35v2.35H184.96z M187.31,195.23v-2.35h2.35v2.35
		H187.31z"/>
</g>
</svg>
