<?xml version="1.0" encoding="utf-8"?>
<!-- Generator: Adobe Illustrator 25.2.1, SVG Export Plug-In . SVG Version: 6.00 Build 0)  -->
<svg version="1.1" id="Layer_1" xmlns="http://www.w3.org/2000/svg" xmlns:xlink="http://www.w3.org/1999/xlink" x="0px" y="0px"
	 viewBox="0 0 810.57 96" style="enable-background:new 0 0 810.57 96;" xml:space="preserve">
<style type="text/css">
	.st0{enable-background:new    ;}
	.st1{fill:#FFFFFF;}
	.st2{fill:none;stroke:#F7BB16;stroke-width:2;stroke-linecap:round;stroke-miterlimit:10;}
</style>
<g id="Group_12" transform="translate(-135.399 -734.521)">
	<g class="st0">
		<path class="st1" d="M484.26,789.16h-5.15v-5.86h16.37v5.86h-5.15v34.48h-6.07V789.16z"/>
		<path class="st1" d="M512.13,823.64H506v-40.33h6.13V823.64z"/>
		<path class="st1" d="M537.34,783.31v5.86h-7.81v10.57h6.13v6.13h-6.13v11.66h8.13v6.13H523.4v-40.35H537.34z"/>
		<path class="st1" d="M554.36,823.64h-6.13v-40.33h9.92c4.07,0,6.13,1.74,6.13,6.24v7.16c0,3.36-1.57,4.66-2.66,5.15
			c1.36,0.6,2.66,1.68,2.66,4.39v14.15c0,1.63,0.33,2.39,0.6,2.98v0.27h-6.07c-0.27-0.43-0.6-1.14-0.6-3.31V808.2
			c0-1.79-0.33-2.55-2.28-2.55h-1.57L554.36,823.64L554.36,823.64z M554.36,799.9h1.63c1.68,0,2.22-1.08,2.22-2.87v-5.64
			c0-1.73-0.38-2.6-2.22-2.6h-1.63V799.9z"/>
		<path class="st1" d="M589.98,795.45v-5.1c0-3.2,1.36-7.43,6.34-7.43h1.52c5.04,0,7.21,3.09,7.21,7.54v4.61
			c0,4.23-1.08,5.58-2.55,6.34c1.84,0.7,2.93,1.9,2.93,4.82v9.92c0,4.88-2.82,7.97-7.1,7.97h-1.68c-5.26,0-7.1-3.09-7.1-6.94v-8.17
			h6.07v6.61c0,1.63,0.65,2.38,1.79,2.38s1.68-0.76,1.68-2.38v-8.4c0-1.41-0.22-2.06-1.63-2.06h-3.31v-6.29h2.87
			c1.52,0,1.74-0.49,1.74-2.28v-5.64c0-1.68-0.43-2.22-1.57-2.22c-1.08,0-1.52,0.54-1.52,2.17v4.55L589.98,795.45L589.98,795.45z"/>
	</g>
	<line id="Line_5" class="st2" x1="669.94" y1="799.68" x2="944.96" y2="799.68"/>
	<line id="Line_6" class="st2" x1="136.4" y1="799.68" x2="411.42" y2="799.68"/>
</g>
<g>
	<path class="st1" d="M342.22,17.74v-2.69c0-1.69,0.71-3.92,3.35-3.92h0.8c2.66,0,3.8,1.63,3.8,3.98v2.43
		c0,2.23-0.57,2.95-1.34,3.35c0.97,0.37,1.54,1,1.54,2.55v5.24c0,2.58-1.49,4.21-3.75,4.21h-0.89c-2.78,0-3.75-1.63-3.75-3.66v-4.32
		h3.2v3.49c0,0.86,0.34,1.26,0.94,1.26s0.89-0.4,0.89-1.26v-4.43c0-0.74-0.11-1.09-0.86-1.09h-1.75v-3.32h1.52
		c0.8,0,0.92-0.26,0.92-1.2v-2.98c0-0.89-0.23-1.17-0.83-1.17c-0.57,0-0.8,0.29-0.8,1.14v2.4L342.22,17.74L342.22,17.74z"/>
	<path class="st1" d="M364.71,28.44c0,2.55-1.37,4.43-3.98,4.43h-0.71c-2.52,0-3.86-1.52-3.86-4.43V16.02
		c0-3.09,1.09-4.89,4.03-4.89h0.6c3.03,0,3.92,1.97,3.92,4.83V28.44L364.71,28.44z M361.42,15.85c0-1.09-0.23-1.57-1-1.57
		s-0.97,0.51-0.97,1.57v12.36c0,0.77,0.11,1.43,0.94,1.43s1.03-0.6,1.03-1.43L361.42,15.85L361.42,15.85z"/>
	<path class="st1" d="M370.21,32.62v-1.6c0-2.77,0.43-4.15,2.49-7.75l1.86-3.29c0.89-1.57,0.92-2.23,0.92-3.26v-1.37
		c0-0.8-0.29-1.12-0.83-1.12c-0.6,0-0.8,0.31-0.8,1.12v3.63h-3.09v-3.89c0-2.03,0.83-3.95,3.52-3.95h0.66c2.4,0,3.95,1.09,3.95,3.95
		v1.06c0,2.49-0.11,3.49-1.89,6.15c-0.57,0.86-1.43,2-2.06,2.92c-1.92,2.75-2.03,3.52-2.03,4.38h2.86v-4.09h3.26v7.12L370.21,32.62
		L370.21,32.62z"/>
	<path class="st1" d="M390.21,25.18v3.58h-2.6v-3.58h-3.06v-2.43h3.06v-3.61h2.6v3.61h3.06v2.43H390.21z"/>
	<path class="st1" d="M409.72,17.22v1.66c0.37-0.6,1.2-1.75,2.49-1.75h0.03c1.54,0,2.26,1.26,2.26,2.89v9.67
		c0,2-1.09,3.03-2.35,3.03h-0.06c-1.12,0-1.86-0.83-2.38-1.46v6.72h-3.06V17.21L409.72,17.22L409.72,17.22z M411.38,29.01v-8.04
		c0-0.71-0.23-1.12-0.8-1.12c-0.54,0-0.86,0.43-0.86,1.12v7.98c0,0.8,0.4,1.17,0.86,1.17C411.15,30.13,411.38,29.7,411.38,29.01z"/>
	<path class="st1" d="M420.19,28.9v-7.92c0-2.55,1.34-3.98,3.66-3.98h0.57c2.26,0,3.66,1.37,3.66,3.86v8.04
		c0,2.06-1.29,3.98-3.66,3.98h-0.57C421.19,32.87,420.19,30.96,420.19,28.9z M425,28.75V21c0-0.86-0.31-1.17-0.86-1.17
		c-0.51,0-0.86,0.29-0.86,1.17v7.75c0,0.74,0.29,1.2,0.86,1.2C424.74,29.95,425,29.44,425,28.75z"/>
	<path class="st1" d="M436.87,16.39h-3.06V13.1h3.06V16.39z M436.87,32.62h-3.06V17.23h3.06V32.62z"/>
	<path class="st1" d="M442.68,17.22h3v1.8c0.46-0.86,1.4-1.89,2.6-1.89h0.14c1.57,0,2.06,1.4,2.06,2.38v13.1h-3.09V21.08
		c0-0.71-0.2-1.14-0.8-1.14c-0.63,0-0.86,0.43-0.86,1.26v11.42h-3.06v-15.4L442.68,17.22L442.68,17.22z"/>
	<path class="st1" d="M459.47,32.62c-1.03,0-1.83-0.51-1.83-1.89V20.15h-1.75v-2.92h1.75v-5.06h3.06v5.06h1.8v2.92h-1.8v8.81
		c0,0.51,0.09,0.71,0.6,0.71h1.2v2.95H459.47z"/>
	<path class="st1" d="M467.77,29.73v-2.78h2.86v2.2c0,0.8,0.26,1.06,0.77,1.06c0.49,0,0.72-0.37,0.72-1.06v-0.26
		c0-0.63-0.06-1.34-0.83-2.2l-1.8-2.06c-1.2-1.4-1.52-2.52-1.52-3.98v-0.43c0-1.95,1-3.23,3.32-3.23h0.54
		c2.46,0,3.12,1.29,3.12,2.78v2.32h-2.75v-1.83c0-0.6-0.2-0.86-0.69-0.86c-0.54,0-0.66,0.34-0.66,0.94v0.26
		c0,0.77,0.17,1.06,0.71,1.72l1.86,2.23c1.43,1.72,1.72,2.69,1.72,4.23v0.4c0,1.83-0.94,3.69-3.46,3.69h-0.6
		C468.66,32.87,467.77,31.47,467.77,29.73z"/>
</g>
</svg>
